<mxfile host="65bd71144e">
    <diagram id="TTQa5VEr6ZDeAb4FRWz5" name="Flowchart">
        <mxGraphModel dx="956" dy="569" grid="0" gridSize="10" guides="1" tooltips="1" connect="1" arrows="1" fold="1" page="1" pageScale="1" pageWidth="850" pageHeight="1100" math="0" shadow="0">
            <root>
                <mxCell id="0"/>
                <mxCell id="1" parent="0"/>
                <mxCell id="DbzM7io35zpTCZY16cr3-26" value="" style="edgeStyle=elbowEdgeStyle;rounded=0;orthogonalLoop=1;jettySize=auto;elbow=vertical;html=1;" parent="1" source="bZS4EHqbZC5acI7CX3TS-1" target="DbzM7io35zpTCZY16cr3-1" edge="1">
                    <mxGeometry relative="1" as="geometry"/>
                </mxCell>
                <mxCell id="bZS4EHqbZC5acI7CX3TS-1" value="Routing Resource File" style="shape=document;whiteSpace=wrap;html=1;boundedLbl=1;fontFamily=Times New Roman;fontSize=12;strokeWidth=1.3;strokeColor=#000000;" parent="1" vertex="1">
                    <mxGeometry x="232" y="100" width="143" height="40" as="geometry"/>
                </mxCell>
                <mxCell id="gcKfTOr0ZRm3SLbJAiHh-11" value="Multi-Threaded Pattern Routing" style="swimlane;fillColor=#FFF2CC;strokeColor=#000000;fontFamily=Times New Roman;fontSize=12;strokeWidth=1.3;swimlaneFillColor=#FFF2CC;fontStyle=0;align=left;swimlaneLine=0;" parent="1" vertex="1">
                    <mxGeometry x="161" y="394" width="200.75" height="281" as="geometry"/>
                </mxCell>
                <mxCell id="DbzM7io35zpTCZY16cr3-29" value="" style="edgeStyle=none;html=1;" parent="gcKfTOr0ZRm3SLbJAiHh-11" source="DbzM7io35zpTCZY16cr3-19" target="DbzM7io35zpTCZY16cr3-23" edge="1">
                    <mxGeometry relative="1" as="geometry"/>
                </mxCell>
                <mxCell id="DbzM7io35zpTCZY16cr3-19" value="Construct Steiner Tree" style="rounded=0;whiteSpace=wrap;html=1;fontFamily=Times New Roman;fillColor=#FFCC99;strokeColor=#000000;strokeWidth=1.3;" parent="gcKfTOr0ZRm3SLbJAiHh-11" vertex="1">
                    <mxGeometry x="32.75" y="38" width="134.5" height="24" as="geometry"/>
                </mxCell>
                <mxCell id="H4muwW61LgTwY1jPvWEI-12" value="" style="edgeStyle=none;html=1;" parent="gcKfTOr0ZRm3SLbJAiHh-11" source="DbzM7io35zpTCZY16cr3-23" target="H4muwW61LgTwY1jPvWEI-11" edge="1">
                    <mxGeometry relative="1" as="geometry"/>
                </mxCell>
                <mxCell id="DbzM7io35zpTCZY16cr3-23" value="Construct Routing DAG" style="rounded=0;whiteSpace=wrap;html=1;fontFamily=Times New Roman;fillColor=#FFCC99;strokeColor=#000000;strokeWidth=1.3;" parent="gcKfTOr0ZRm3SLbJAiHh-11" vertex="1">
                    <mxGeometry x="33.25" y="78" width="134.5" height="24" as="geometry"/>
                </mxCell>
                <mxCell id="H4muwW61LgTwY1jPvWEI-15" value="" style="edgeStyle=none;html=1;" parent="gcKfTOr0ZRm3SLbJAiHh-11" source="H4muwW61LgTwY1jPvWEI-10" target="H4muwW61LgTwY1jPvWEI-14" edge="1">
                    <mxGeometry relative="1" as="geometry"/>
                </mxCell>
                <mxCell id="H4muwW61LgTwY1jPvWEI-10" value="L-Shape and Z-Shape Pattern Routing" style="rounded=0;whiteSpace=wrap;html=1;fontFamily=Times New Roman;fillColor=#FFCC99;strokeColor=#000000;strokeWidth=1.3;" parent="gcKfTOr0ZRm3SLbJAiHh-11" vertex="1">
                    <mxGeometry x="32.75" y="166" width="134.5" height="33" as="geometry"/>
                </mxCell>
                <mxCell id="H4muwW61LgTwY1jPvWEI-13" value="" style="edgeStyle=none;html=1;" parent="gcKfTOr0ZRm3SLbJAiHh-11" source="H4muwW61LgTwY1jPvWEI-11" target="H4muwW61LgTwY1jPvWEI-10" edge="1">
                    <mxGeometry relative="1" as="geometry"/>
                </mxCell>
                <mxCell id="H4muwW61LgTwY1jPvWEI-11" value="Dynamic Programming-based Vertex Cost Update" style="rounded=0;whiteSpace=wrap;html=1;fontFamily=Times New Roman;fillColor=#FFCC99;strokeColor=#000000;strokeWidth=1.3;" parent="gcKfTOr0ZRm3SLbJAiHh-11" vertex="1">
                    <mxGeometry x="33.25" y="118" width="134.5" height="33" as="geometry"/>
                </mxCell>
                <mxCell id="H4muwW61LgTwY1jPvWEI-14" value="Net overflow?" style="rhombus;whiteSpace=wrap;html=1;fillColor=#99CCFF;fontFamily=Times New Roman;" parent="gcKfTOr0ZRm3SLbJAiHh-11" vertex="1">
                    <mxGeometry x="33.25" y="213" width="134.25" height="56" as="geometry"/>
                </mxCell>
                <mxCell id="DbzM7io35zpTCZY16cr3-27" value="" style="edgeStyle=elbowEdgeStyle;rounded=0;orthogonalLoop=1;jettySize=auto;elbow=vertical;html=1;" parent="1" source="gcKfTOr0ZRm3SLbJAiHh-16" target="DbzM7io35zpTCZY16cr3-1" edge="1">
                    <mxGeometry relative="1" as="geometry"/>
                </mxCell>
                <mxCell id="gcKfTOr0ZRm3SLbJAiHh-16" value="Net Information File" style="shape=document;whiteSpace=wrap;html=1;boundedLbl=1;fontFamily=Times New Roman;fontSize=12;strokeWidth=1.3;strokeColor=#000000;" parent="1" vertex="1">
                    <mxGeometry x="398" y="100" width="143" height="40" as="geometry"/>
                </mxCell>
                <mxCell id="gcKfTOr0ZRm3SLbJAiHh-24" value="Congestion-Aware Pattern Routing" style="swimlane;fillColor=#FFF2CC;strokeColor=#000000;fontFamily=Times New Roman;fontSize=12;strokeWidth=1.3;swimlaneFillColor=#FFF2CC;fontStyle=0;align=left;swimlaneLine=0;" parent="1" vertex="1">
                    <mxGeometry x="416" y="392" width="200" height="285" as="geometry"/>
                </mxCell>
                <mxCell id="H4muwW61LgTwY1jPvWEI-8" value="Construct Detours" style="rounded=0;whiteSpace=wrap;html=1;fontFamily=Times New Roman;fillColor=#FFCC99;strokeColor=#000000;strokeWidth=1.3;" parent="gcKfTOr0ZRm3SLbJAiHh-24" vertex="1">
                    <mxGeometry x="36" y="153" width="134.5" height="24" as="geometry"/>
                </mxCell>
                <mxCell id="C2_RcnyLkLIA7YBpo18w-18" value="" style="edgeStyle=elbowEdgeStyle;elbow=vertical;html=1;" parent="gcKfTOr0ZRm3SLbJAiHh-24" source="C2_RcnyLkLIA7YBpo18w-1" target="C2_RcnyLkLIA7YBpo18w-17" edge="1">
                    <mxGeometry relative="1" as="geometry"/>
                </mxCell>
                <mxCell id="C2_RcnyLkLIA7YBpo18w-1" value="Construct Congestion Map" style="rounded=0;whiteSpace=wrap;html=1;fontFamily=Times New Roman;fillColor=#FFCC99;strokeColor=#000000;strokeWidth=1.3;" parent="gcKfTOr0ZRm3SLbJAiHh-24" vertex="1">
                    <mxGeometry x="36" y="33" width="134.5" height="24" as="geometry"/>
                </mxCell>
                <mxCell id="C2_RcnyLkLIA7YBpo18w-4" value="Dynamic Programming-based Vertex Cost Update" style="rounded=0;whiteSpace=wrap;html=1;fontFamily=Times New Roman;fillColor=#FFCC99;strokeColor=#000000;strokeWidth=1.3;" parent="gcKfTOr0ZRm3SLbJAiHh-24" vertex="1">
                    <mxGeometry x="36" y="191" width="134.5" height="33" as="geometry"/>
                </mxCell>
                <mxCell id="C2_RcnyLkLIA7YBpo18w-5" style="edgeStyle=none;html=1;exitX=0.5;exitY=1;exitDx=0;exitDy=0;" parent="gcKfTOr0ZRm3SLbJAiHh-24" source="H4muwW61LgTwY1jPvWEI-8" target="C2_RcnyLkLIA7YBpo18w-4" edge="1">
                    <mxGeometry relative="1" as="geometry"/>
                </mxCell>
                <mxCell id="C2_RcnyLkLIA7YBpo18w-6" value="L-Shape and Z-Shape Pattern Routing" style="rounded=0;whiteSpace=wrap;html=1;fontFamily=Times New Roman;fillColor=#FFCC99;strokeColor=#000000;strokeWidth=1.3;" parent="gcKfTOr0ZRm3SLbJAiHh-24" vertex="1">
                    <mxGeometry x="36" y="238" width="134.5" height="33" as="geometry"/>
                </mxCell>
                <mxCell id="C2_RcnyLkLIA7YBpo18w-7" style="edgeStyle=none;html=1;entryX=0.5;entryY=0;entryDx=0;entryDy=0;" parent="gcKfTOr0ZRm3SLbJAiHh-24" source="C2_RcnyLkLIA7YBpo18w-4" target="C2_RcnyLkLIA7YBpo18w-6" edge="1">
                    <mxGeometry relative="1" as="geometry"/>
                </mxCell>
                <mxCell id="C2_RcnyLkLIA7YBpo18w-20" value="" style="edgeStyle=elbowEdgeStyle;elbow=vertical;html=1;" parent="gcKfTOr0ZRm3SLbJAiHh-24" source="C2_RcnyLkLIA7YBpo18w-17" target="C2_RcnyLkLIA7YBpo18w-16" edge="1">
                    <mxGeometry relative="1" as="geometry"/>
                </mxCell>
                <mxCell id="C2_RcnyLkLIA7YBpo18w-17" value="Construct Steiner Tree" style="rounded=0;whiteSpace=wrap;html=1;fontFamily=Times New Roman;fillColor=#FFCC99;strokeColor=#000000;strokeWidth=1.3;" parent="gcKfTOr0ZRm3SLbJAiHh-24" vertex="1">
                    <mxGeometry x="36" y="73" width="134.5" height="24" as="geometry"/>
                </mxCell>
                <mxCell id="C2_RcnyLkLIA7YBpo18w-24" style="edgeStyle=elbowEdgeStyle;elbow=vertical;html=1;entryX=0.5;entryY=0;entryDx=0;entryDy=0;" parent="gcKfTOr0ZRm3SLbJAiHh-24" source="C2_RcnyLkLIA7YBpo18w-16" target="H4muwW61LgTwY1jPvWEI-8" edge="1">
                    <mxGeometry relative="1" as="geometry"/>
                </mxCell>
                <mxCell id="C2_RcnyLkLIA7YBpo18w-16" value="Construct Routing DAG" style="rounded=0;whiteSpace=wrap;html=1;fontFamily=Times New Roman;fillColor=#FFCC99;strokeColor=#000000;strokeWidth=1.3;" parent="gcKfTOr0ZRm3SLbJAiHh-24" vertex="1">
                    <mxGeometry x="36" y="113" width="134.5" height="24" as="geometry"/>
                </mxCell>
                <mxCell id="3" style="edgeStyle=elbowEdgeStyle;html=1;entryX=0.5;entryY=0;entryDx=0;entryDy=0;elbow=vertical;rounded=0;" parent="1" source="DbzM7io35zpTCZY16cr3-1" target="gcKfTOr0ZRm3SLbJAiHh-11" edge="1">
                    <mxGeometry relative="1" as="geometry"/>
                </mxCell>
                <mxCell id="DbzM7io35zpTCZY16cr3-1" value="Preprocessing" style="swimlane;fillColor=#FFF2CC;strokeColor=#000000;fontFamily=Times New Roman;fontSize=12;strokeWidth=1.3;swimlaneFillColor=#FFF2CC;fontStyle=0;align=left;swimlaneLine=0;startSize=23;" parent="1" vertex="1">
                    <mxGeometry x="282" y="197" width="200" height="150" as="geometry">
                        <mxRectangle x="68" y="257" width="87" height="26" as="alternateBounds"/>
                    </mxGeometry>
                </mxCell>
                <mxCell id="2" style="edgeStyle=none;html=1;entryX=0.5;entryY=0;entryDx=0;entryDy=0;" parent="DbzM7io35zpTCZY16cr3-1" source="DbzM7io35zpTCZY16cr3-3" target="DbzM7io35zpTCZY16cr3-8" edge="1">
                    <mxGeometry relative="1" as="geometry"/>
                </mxCell>
                <mxCell id="DbzM7io35zpTCZY16cr3-3" value="Pin Access Point Selection" style="rounded=0;whiteSpace=wrap;html=1;fontFamily=Times New Roman;fillColor=#FFCC99;strokeColor=#000000;strokeWidth=1.3;" parent="DbzM7io35zpTCZY16cr3-1" vertex="1">
                    <mxGeometry x="32.75" y="26" width="134.5" height="24" as="geometry"/>
                </mxCell>
                <mxCell id="DbzM7io35zpTCZY16cr3-8" value="Net Order Decision" style="rounded=0;whiteSpace=wrap;html=1;fontFamily=Times New Roman;fillColor=#FFCC99;strokeColor=#000000;strokeWidth=1.3;" parent="DbzM7io35zpTCZY16cr3-1" vertex="1">
                    <mxGeometry x="32.75" y="65" width="134.5" height="24" as="geometry"/>
                </mxCell>
                <mxCell id="DbzM7io35zpTCZY16cr3-9" value="Dynamic Net Separation&amp;nbsp;" style="rounded=0;whiteSpace=wrap;html=1;fontFamily=Times New Roman;fillColor=#FFCC99;strokeColor=#000000;strokeWidth=1.3;" parent="DbzM7io35zpTCZY16cr3-1" vertex="1">
                    <mxGeometry x="32.75" y="104" width="134.5" height="24" as="geometry"/>
                </mxCell>
                <mxCell id="DbzM7io35zpTCZY16cr3-11" value="" style="edgeStyle=none;html=1;" parent="DbzM7io35zpTCZY16cr3-1" source="DbzM7io35zpTCZY16cr3-8" target="DbzM7io35zpTCZY16cr3-9" edge="1">
                    <mxGeometry relative="1" as="geometry"/>
                </mxCell>
                <mxCell id="H4muwW61LgTwY1jPvWEI-26" style="edgeStyle=orthogonalEdgeStyle;html=1;rounded=0;entryX=0.5;entryY=0;entryDx=0;entryDy=0;" parent="1" source="H4muwW61LgTwY1jPvWEI-14" target="gcKfTOr0ZRm3SLbJAiHh-24" edge="1">
                    <mxGeometry relative="1" as="geometry">
                        <Array as="points">
                            <mxPoint x="393" y="635"/>
                            <mxPoint x="393" y="371"/>
                            <mxPoint x="516" y="371"/>
                        </Array>
                        <mxPoint x="519" y="383" as="targetPoint"/>
                    </mxGeometry>
                </mxCell>
                <mxCell id="H4muwW61LgTwY1jPvWEI-27" value="Yes" style="edgeLabel;html=1;align=center;verticalAlign=middle;resizable=0;points=[];fontFamily=Times New Roman;" parent="H4muwW61LgTwY1jPvWEI-26" vertex="1" connectable="0">
                    <mxGeometry x="-0.7978" y="-1" relative="1" as="geometry">
                        <mxPoint x="5" as="offset"/>
                    </mxGeometry>
                </mxCell>
                <mxCell id="C2_RcnyLkLIA7YBpo18w-12" style="edgeStyle=elbowEdgeStyle;rounded=0;orthogonalLoop=1;jettySize=auto;elbow=vertical;html=1;entryX=0.5;entryY=0;entryDx=0;entryDy=0;" parent="1" source="H4muwW61LgTwY1jPvWEI-14" target="gJAGXRyNrjN4P-h-dZfx-1" edge="1">
                    <mxGeometry relative="1" as="geometry">
                        <mxPoint x="397.5" y="745" as="targetPoint"/>
                    </mxGeometry>
                </mxCell>
                <mxCell id="C2_RcnyLkLIA7YBpo18w-26" value="No" style="edgeLabel;html=1;align=center;verticalAlign=middle;resizable=0;points=[];fontFamily=Times New Roman;" parent="C2_RcnyLkLIA7YBpo18w-12" vertex="1" connectable="0">
                    <mxGeometry x="0.1189" y="3" relative="1" as="geometry">
                        <mxPoint x="-83" y="-18" as="offset"/>
                    </mxGeometry>
                </mxCell>
                <mxCell id="C2_RcnyLkLIA7YBpo18w-14" style="edgeStyle=elbowEdgeStyle;rounded=0;orthogonalLoop=1;jettySize=auto;elbow=vertical;html=1;entryX=0.5;entryY=0;entryDx=0;entryDy=0;" parent="1" source="C2_RcnyLkLIA7YBpo18w-6" target="gJAGXRyNrjN4P-h-dZfx-1" edge="1">
                    <mxGeometry relative="1" as="geometry">
                        <mxPoint x="397.5" y="745" as="targetPoint"/>
                    </mxGeometry>
                </mxCell>
                <mxCell id="gJAGXRyNrjN4P-h-dZfx-1" value="Routing Result" style="whiteSpace=wrap;html=1;fontFamily=Times New Roman;" parent="1" vertex="1">
                    <mxGeometry x="339" y="763" width="120" height="27" as="geometry"/>
                </mxCell>
            </root>
        </mxGraphModel>
    </diagram>
    <diagram id="C5RBs43oDa-KdzZeNtuy" name="Loader">
        <mxGraphModel dx="928" dy="581" grid="0" gridSize="10" guides="0" tooltips="0" connect="0" arrows="0" fold="1" page="0" pageScale="1" pageWidth="1169" pageHeight="827" math="0" shadow="0">
            <root>
                <mxCell id="WIyWlLk6GJQsqaUBKTNV-0"/>
                <mxCell id="WIyWlLk6GJQsqaUBKTNV-1" parent="WIyWlLk6GJQsqaUBKTNV-0"/>
                <mxCell id="7_gSfKA-eOeRBkoOO_Rj-0" style="edgeStyle=orthogonalEdgeStyle;rounded=0;orthogonalLoop=1;jettySize=auto;html=1;exitX=0.5;exitY=1;exitDx=0;exitDy=0;entryX=0.5;entryY=0;entryDx=0;entryDy=0;" parent="WIyWlLk6GJQsqaUBKTNV-1" source="zkfFHV4jXpPFQw0GAbJ--0" target="zkfFHV4jXpPFQw0GAbJ--13" edge="1">
                    <mxGeometry relative="1" as="geometry"/>
                </mxCell>
                <mxCell id="7_gSfKA-eOeRBkoOO_Rj-1" style="edgeStyle=orthogonalEdgeStyle;rounded=0;orthogonalLoop=1;jettySize=auto;html=1;exitX=0.5;exitY=1;exitDx=0;exitDy=0;entryX=0.5;entryY=0;entryDx=0;entryDy=0;" parent="WIyWlLk6GJQsqaUBKTNV-1" source="zkfFHV4jXpPFQw0GAbJ--0" target="zkfFHV4jXpPFQw0GAbJ--6" edge="1">
                    <mxGeometry relative="1" as="geometry"/>
                </mxCell>
                <mxCell id="7_gSfKA-eOeRBkoOO_Rj-8" style="edgeStyle=orthogonalEdgeStyle;rounded=0;orthogonalLoop=1;jettySize=auto;html=1;exitX=0.5;exitY=1;exitDx=0;exitDy=0;entryX=0.5;entryY=0;entryDx=0;entryDy=0;" parent="WIyWlLk6GJQsqaUBKTNV-1" source="zkfFHV4jXpPFQw0GAbJ--0" target="7_gSfKA-eOeRBkoOO_Rj-6" edge="1">
                    <mxGeometry relative="1" as="geometry"/>
                </mxCell>
                <mxCell id="zkfFHV4jXpPFQw0GAbJ--0" value="NetList" style="swimlane;fontStyle=0;align=center;verticalAlign=top;childLayout=stackLayout;horizontal=1;startSize=26;horizontalStack=0;resizeParent=1;resizeLast=0;collapsible=1;marginBottom=0;rounded=0;shadow=0;strokeWidth=1;" parent="WIyWlLk6GJQsqaUBKTNV-1" vertex="1">
                    <mxGeometry x="210" y="350" width="160" height="130" as="geometry">
                        <mxRectangle x="230" y="140" width="160" height="26" as="alternateBounds"/>
                    </mxGeometry>
                </mxCell>
                <mxCell id="zkfFHV4jXpPFQw0GAbJ--1" value="nets: vector&lt;Net&gt;&#10;pins: vector&lt;Pin&gt;&#10;points: vector&lt;Point&gt;&#10;n_nets: int&#10;n_pins: int&#10;n_points: int" style="text;align=left;verticalAlign=top;spacingLeft=4;spacingRight=4;overflow=hidden;rotatable=0;points=[[0,0.5],[1,0.5]];portConstraint=eastwest;" parent="zkfFHV4jXpPFQw0GAbJ--0" vertex="1">
                    <mxGeometry y="26" width="160" height="104" as="geometry"/>
                </mxCell>
                <mxCell id="zkfFHV4jXpPFQw0GAbJ--6" value="Net" style="swimlane;fontStyle=0;align=center;verticalAlign=top;childLayout=stackLayout;horizontal=1;startSize=26;horizontalStack=0;resizeParent=1;resizeLast=0;collapsible=1;marginBottom=0;rounded=0;shadow=0;strokeWidth=1;" parent="WIyWlLk6GJQsqaUBKTNV-1" vertex="1">
                    <mxGeometry x="30" y="590" width="160" height="80" as="geometry">
                        <mxRectangle x="130" y="380" width="160" height="26" as="alternateBounds"/>
                    </mxGeometry>
                </mxCell>
                <mxCell id="zkfFHV4jXpPFQw0GAbJ--8" value="id: int&#10;name: string&#10;pin_ids: vector&lt;int&gt;" style="text;align=left;verticalAlign=top;spacingLeft=4;spacingRight=4;overflow=hidden;rotatable=0;points=[[0,0.5],[1,0.5]];portConstraint=eastwest;rounded=0;shadow=0;html=0;" parent="zkfFHV4jXpPFQw0GAbJ--6" vertex="1">
                    <mxGeometry y="26" width="160" height="54" as="geometry"/>
                </mxCell>
                <mxCell id="zkfFHV4jXpPFQw0GAbJ--13" value="Pin" style="swimlane;fontStyle=0;align=center;verticalAlign=top;childLayout=stackLayout;horizontal=1;startSize=26;horizontalStack=0;resizeParent=1;resizeLast=0;collapsible=1;marginBottom=0;rounded=0;shadow=0;strokeWidth=1;" parent="WIyWlLk6GJQsqaUBKTNV-1" vertex="1">
                    <mxGeometry x="210" y="590" width="160" height="80" as="geometry">
                        <mxRectangle x="340" y="380" width="170" height="26" as="alternateBounds"/>
                    </mxGeometry>
                </mxCell>
                <mxCell id="zkfFHV4jXpPFQw0GAbJ--14" value="id: int&#10;net_id: int&#10;point_ids: vector&lt;int&gt;" style="text;align=left;verticalAlign=top;spacingLeft=4;spacingRight=4;overflow=hidden;rotatable=0;points=[[0,0.5],[1,0.5]];portConstraint=eastwest;" parent="zkfFHV4jXpPFQw0GAbJ--13" vertex="1">
                    <mxGeometry y="26" width="160" height="54" as="geometry"/>
                </mxCell>
                <mxCell id="zkfFHV4jXpPFQw0GAbJ--17" value="Metrics" style="swimlane;fontStyle=0;align=center;verticalAlign=top;childLayout=stackLayout;horizontal=1;startSize=26;horizontalStack=0;resizeParent=1;resizeLast=0;collapsible=1;marginBottom=0;rounded=0;shadow=0;strokeWidth=1;" parent="WIyWlLk6GJQsqaUBKTNV-1" vertex="1">
                    <mxGeometry x="880" y="350" width="160" height="130" as="geometry">
                        <mxRectangle x="550" y="140" width="160" height="26" as="alternateBounds"/>
                    </mxGeometry>
                </mxCell>
                <mxCell id="7_gSfKA-eOeRBkoOO_Rj-22" value="UnitLengthWireCost: double&#10;UnitViaCost: double&#10;OFWeight: vector&lt;double&gt;         " style="text;align=left;verticalAlign=top;spacingLeft=4;spacingRight=4;overflow=hidden;rotatable=0;points=[[0,0.5],[1,0.5]];portConstraint=eastwest;" parent="zkfFHV4jXpPFQw0GAbJ--17" vertex="1">
                    <mxGeometry y="26" width="160" height="104" as="geometry"/>
                </mxCell>
                <mxCell id="7_gSfKA-eOeRBkoOO_Rj-6" value="Point" style="swimlane;fontStyle=0;align=center;verticalAlign=top;childLayout=stackLayout;horizontal=1;startSize=26;horizontalStack=0;resizeParent=1;resizeLast=0;collapsible=1;marginBottom=0;rounded=0;shadow=0;strokeWidth=1;" parent="WIyWlLk6GJQsqaUBKTNV-1" vertex="1">
                    <mxGeometry x="390" y="590" width="160" height="110" as="geometry">
                        <mxRectangle x="340" y="380" width="170" height="26" as="alternateBounds"/>
                    </mxGeometry>
                </mxCell>
                <mxCell id="7_gSfKA-eOeRBkoOO_Rj-7" value="id: int&#10;net_id: int&#10;x: int&#10;y: int&#10;layer: int" style="text;align=left;verticalAlign=top;spacingLeft=4;spacingRight=4;overflow=hidden;rotatable=0;points=[[0,0.5],[1,0.5]];portConstraint=eastwest;" parent="7_gSfKA-eOeRBkoOO_Rj-6" vertex="1">
                    <mxGeometry y="26" width="160" height="84" as="geometry"/>
                </mxCell>
                <mxCell id="7_gSfKA-eOeRBkoOO_Rj-19" style="edgeStyle=orthogonalEdgeStyle;rounded=0;orthogonalLoop=1;jettySize=auto;html=1;exitX=0.5;exitY=1;exitDx=0;exitDy=0;entryX=0.5;entryY=0;entryDx=0;entryDy=0;" parent="WIyWlLk6GJQsqaUBKTNV-1" source="7_gSfKA-eOeRBkoOO_Rj-9" target="zkfFHV4jXpPFQw0GAbJ--17" edge="1">
                    <mxGeometry relative="1" as="geometry"/>
                </mxCell>
                <mxCell id="7_gSfKA-eOeRBkoOO_Rj-20" style="edgeStyle=orthogonalEdgeStyle;rounded=0;orthogonalLoop=1;jettySize=auto;html=1;exitX=0.5;exitY=1;exitDx=0;exitDy=0;entryX=0.5;entryY=0;entryDx=0;entryDy=0;" parent="WIyWlLk6GJQsqaUBKTNV-1" source="7_gSfKA-eOeRBkoOO_Rj-9" target="zkfFHV4jXpPFQw0GAbJ--0" edge="1">
                    <mxGeometry relative="1" as="geometry"/>
                </mxCell>
                <mxCell id="7_gSfKA-eOeRBkoOO_Rj-21" style="edgeStyle=orthogonalEdgeStyle;rounded=0;orthogonalLoop=1;jettySize=auto;html=1;exitX=0.5;exitY=1;exitDx=0;exitDy=0;entryX=0.5;entryY=0;entryDx=0;entryDy=0;" parent="WIyWlLk6GJQsqaUBKTNV-1" source="7_gSfKA-eOeRBkoOO_Rj-9" target="7_gSfKA-eOeRBkoOO_Rj-13" edge="1">
                    <mxGeometry relative="1" as="geometry"/>
                </mxCell>
                <mxCell id="7_gSfKA-eOeRBkoOO_Rj-25" style="edgeStyle=orthogonalEdgeStyle;rounded=0;orthogonalLoop=1;jettySize=auto;html=1;entryX=0.5;entryY=0;entryDx=0;entryDy=0;" parent="WIyWlLk6GJQsqaUBKTNV-1" source="7_gSfKA-eOeRBkoOO_Rj-9" target="7_gSfKA-eOeRBkoOO_Rj-23" edge="1">
                    <mxGeometry relative="1" as="geometry">
                        <Array as="points">
                            <mxPoint x="510" y="310"/>
                            <mxPoint x="755" y="310"/>
                        </Array>
                    </mxGeometry>
                </mxCell>
                <mxCell id="7_gSfKA-eOeRBkoOO_Rj-9" value="Design" style="swimlane;fontStyle=2;align=center;verticalAlign=top;childLayout=stackLayout;horizontal=1;startSize=26;horizontalStack=0;resizeParent=1;resizeLast=0;collapsible=1;marginBottom=0;rounded=0;shadow=0;strokeWidth=1;" parent="WIyWlLk6GJQsqaUBKTNV-1" vertex="1">
                    <mxGeometry x="430" y="150" width="160" height="120" as="geometry">
                        <mxRectangle x="430" y="150" width="160" height="26" as="alternateBounds"/>
                    </mxGeometry>
                </mxCell>
                <mxCell id="7_gSfKA-eOeRBkoOO_Rj-10" value="name_: string&#10;netlist: NetList&#10;layers: vector&lt;Layer&gt;&#10;dimension: Dimension&#10;matrix: Matrix&#10;&#10;&#10;" style="text;align=left;verticalAlign=top;spacingLeft=4;spacingRight=4;overflow=hidden;rotatable=0;points=[[0,0.5],[1,0.5]];portConstraint=eastwest;" parent="7_gSfKA-eOeRBkoOO_Rj-9" vertex="1">
                    <mxGeometry y="26" width="160" height="94" as="geometry"/>
                </mxCell>
                <mxCell id="7_gSfKA-eOeRBkoOO_Rj-13" value="Dimension" style="swimlane;fontStyle=0;align=center;verticalAlign=top;childLayout=stackLayout;horizontal=1;startSize=26;horizontalStack=0;resizeParent=1;resizeLast=0;collapsible=1;marginBottom=0;rounded=0;shadow=0;strokeWidth=1;" parent="WIyWlLk6GJQsqaUBKTNV-1" vertex="1">
                    <mxGeometry x="430" y="349" width="160" height="130" as="geometry">
                        <mxRectangle x="550" y="140" width="160" height="26" as="alternateBounds"/>
                    </mxGeometry>
                </mxCell>
                <mxCell id="7_gSfKA-eOeRBkoOO_Rj-14" value="n_layers: int&#10;x_size: int&#10;y_size: int&#10;hEdge: vector&lt;int&gt;&#10;vEdge: vector&lt;int&gt;&#10;" style="text;align=left;verticalAlign=top;spacingLeft=4;spacingRight=4;overflow=hidden;rotatable=0;points=[[0,0.5],[1,0.5]];portConstraint=eastwest;" parent="7_gSfKA-eOeRBkoOO_Rj-13" vertex="1">
                    <mxGeometry y="26" width="160" height="104" as="geometry"/>
                </mxCell>
                <mxCell id="7_gSfKA-eOeRBkoOO_Rj-23" value="Layer" style="swimlane;fontStyle=0;align=center;verticalAlign=top;childLayout=stackLayout;horizontal=1;startSize=26;horizontalStack=0;resizeParent=1;resizeLast=0;collapsible=1;marginBottom=0;rounded=0;shadow=0;strokeWidth=1;" parent="WIyWlLk6GJQsqaUBKTNV-1" vertex="1">
                    <mxGeometry x="670" y="350" width="170" height="130" as="geometry">
                        <mxRectangle x="550" y="140" width="160" height="26" as="alternateBounds"/>
                    </mxGeometry>
                </mxCell>
                <mxCell id="7_gSfKA-eOeRBkoOO_Rj-29" value="id: int&#10;direction: bool&#10;minLength: int&#10;capacity: vector&lt;vector&lt;int&gt;&gt;" style="text;align=left;verticalAlign=top;spacingLeft=4;spacingRight=4;overflow=hidden;rotatable=0;points=[[0,0.5],[1,0.5]];portConstraint=eastwest;" parent="7_gSfKA-eOeRBkoOO_Rj-23" vertex="1">
                    <mxGeometry y="26" width="170" height="104" as="geometry"/>
                </mxCell>
            </root>
        </mxGraphModel>
    </diagram>
    <diagram id="_CBr8Cn0QdF42obfqb1F" name="GlobalRouter">
        <mxGraphModel dx="1328" dy="981" grid="0" gridSize="10" guides="1" tooltips="1" connect="1" arrows="1" fold="1" page="0" pageScale="1" pageWidth="850" pageHeight="1100" math="0" shadow="0">
            <root>
                <mxCell id="0"/>
                <mxCell id="1" parent="0"/>
                <mxCell id="HevTYBSNyxqqAhqlRN5_-1" style="edgeStyle=orthogonalEdgeStyle;rounded=0;orthogonalLoop=1;jettySize=auto;html=1;exitX=0.5;exitY=1;exitDx=0;exitDy=0;entryX=0.5;entryY=0;entryDx=0;entryDy=0;" parent="1" source="HevTYBSNyxqqAhqlRN5_-2" target="n66TMRuZkN7RQtcoLKmF-4" edge="1">
                    <mxGeometry relative="1" as="geometry">
                        <mxPoint x="498" y="63" as="targetPoint"/>
                    </mxGeometry>
                </mxCell>
                <mxCell id="WWrXClFBC-nAK5Uc78w--12" style="edgeStyle=none;html=1;entryX=0.5;entryY=0;entryDx=0;entryDy=0;" parent="1" source="HevTYBSNyxqqAhqlRN5_-2" target="WWrXClFBC-nAK5Uc78w--1" edge="1">
                    <mxGeometry relative="1" as="geometry"/>
                </mxCell>
                <mxCell id="WWrXClFBC-nAK5Uc78w--16" style="edgeStyle=orthogonalEdgeStyle;html=1;entryX=0.5;entryY=0;entryDx=0;entryDy=0;exitX=0.5;exitY=1;exitDx=0;exitDy=0;rounded=0;" parent="1" source="HevTYBSNyxqqAhqlRN5_-2" target="WWrXClFBC-nAK5Uc78w--4" edge="1">
                    <mxGeometry relative="1" as="geometry"/>
                </mxCell>
                <mxCell id="HevTYBSNyxqqAhqlRN5_-2" value="GlobalRouter" style="swimlane;fontStyle=2;align=center;verticalAlign=top;childLayout=stackLayout;horizontal=1;startSize=26;horizontalStack=0;resizeParent=1;resizeLast=0;collapsible=1;marginBottom=0;rounded=0;shadow=0;strokeWidth=1;" parent="1" vertex="1">
                    <mxGeometry x="418" y="-136" width="184" height="107" as="geometry">
                        <mxRectangle x="430" y="150" width="160" height="26" as="alternateBounds"/>
                    </mxGeometry>
                </mxCell>
                <mxCell id="HevTYBSNyxqqAhqlRN5_-3" value="parameters: const Parameters&#10;gridGraph: GridGraph&#10;nets: vector&lt;GRNet&gt; nets&#10;" style="text;align=left;verticalAlign=top;spacingLeft=4;spacingRight=4;overflow=hidden;rotatable=0;points=[[0,0.5],[1,0.5]];portConstraint=eastwest;" parent="HevTYBSNyxqqAhqlRN5_-2" vertex="1">
                    <mxGeometry y="26" width="184" height="80" as="geometry"/>
                </mxCell>
                <mxCell id="n66TMRuZkN7RQtcoLKmF-1" value="GraphEdge" style="swimlane;fontStyle=0;align=center;verticalAlign=top;childLayout=stackLayout;horizontal=1;startSize=26;horizontalStack=0;resizeParent=1;resizeLast=0;collapsible=1;marginBottom=0;rounded=0;shadow=0;strokeWidth=1;" parent="1" vertex="1">
                    <mxGeometry x="-37" y="388" width="160" height="130" as="geometry">
                        <mxRectangle x="550" y="140" width="160" height="26" as="alternateBounds"/>
                    </mxGeometry>
                </mxCell>
                <mxCell id="n66TMRuZkN7RQtcoLKmF-2" value="capacity: double&#10;demand: double&#10;getResource(): double" style="text;align=left;verticalAlign=top;spacingLeft=4;spacingRight=4;overflow=hidden;rotatable=0;points=[[0,0.5],[1,0.5]];portConstraint=eastwest;" parent="n66TMRuZkN7RQtcoLKmF-1" vertex="1">
                    <mxGeometry y="26" width="160" height="104" as="geometry"/>
                </mxCell>
                <mxCell id="n66TMRuZkN7RQtcoLKmF-3" style="edgeStyle=orthogonalEdgeStyle;rounded=0;orthogonalLoop=1;jettySize=auto;html=1;exitX=0.5;exitY=1;exitDx=0;exitDy=0;entryX=0.5;entryY=0;entryDx=0;entryDy=0;" parent="1" source="n66TMRuZkN7RQtcoLKmF-4" target="n66TMRuZkN7RQtcoLKmF-1" edge="1">
                    <mxGeometry relative="1" as="geometry"/>
                </mxCell>
                <mxCell id="n66TMRuZkN7RQtcoLKmF-4" value="GridGraph" style="swimlane;fontStyle=2;align=center;verticalAlign=top;childLayout=stackLayout;horizontal=1;startSize=26;horizontalStack=0;resizeParent=1;resizeLast=0;collapsible=1;marginBottom=0;rounded=0;shadow=0;strokeWidth=1;" parent="1" vertex="1">
                    <mxGeometry x="-150" y="67" width="386" height="239" as="geometry">
                        <mxRectangle x="430" y="150" width="160" height="26" as="alternateBounds"/>
                    </mxGeometry>
                </mxCell>
                <mxCell id="n66TMRuZkN7RQtcoLKmF-5" value="nLayers: unsigned&#10;xSize: unsigned&#10;ySize: unsigned&#10;gridlines: vector&lt;vector&lt;DBU&gt;&gt;&#10;gridCenters: vector&lt;vector&lt;DBU&gt;&gt;&#10;layerDirections: vector&lt;unsigned&gt;&#10;layerMinLengths: vector&lt;DBU&gt;&#10;UnitLengthWireCost: double&#10;UnitViaCost: double&#10;OFWeight: vector&lt;double&gt;&#10;totalLength: DBU&#10;totalNumVias: int&#10;graphEdges: vector&lt;vector&lt;vector&lt;GraphEdge&gt;&gt;&gt;" style="text;align=left;verticalAlign=top;spacingLeft=4;spacingRight=4;overflow=hidden;rotatable=0;points=[[0,0.5],[1,0.5]];portConstraint=eastwest;" parent="n66TMRuZkN7RQtcoLKmF-4" vertex="1">
                    <mxGeometry y="26" width="386" height="211" as="geometry"/>
                </mxCell>
                <mxCell id="dM2PfXPzma0FVHQA6ENl-5" style="edgeStyle=none;html=1;entryX=0.5;entryY=0;entryDx=0;entryDy=0;" parent="1" source="WWrXClFBC-nAK5Uc78w--1" target="dM2PfXPzma0FVHQA6ENl-1" edge="1">
                    <mxGeometry relative="1" as="geometry"/>
                </mxCell>
                <mxCell id="dM2PfXPzma0FVHQA6ENl-6" style="edgeStyle=none;html=1;entryX=0.5;entryY=0;entryDx=0;entryDy=0;" parent="1" source="WWrXClFBC-nAK5Uc78w--1" target="dM2PfXPzma0FVHQA6ENl-3" edge="1">
                    <mxGeometry relative="1" as="geometry"/>
                </mxCell>
                <mxCell id="WWrXClFBC-nAK5Uc78w--1" value="GRNet" style="swimlane;fontStyle=0;align=center;verticalAlign=top;childLayout=stackLayout;horizontal=1;startSize=26;horizontalStack=0;resizeParent=1;resizeLast=0;collapsible=1;marginBottom=0;rounded=0;shadow=0;strokeWidth=1;" parent="1" vertex="1">
                    <mxGeometry x="368" y="67" width="284" height="130" as="geometry">
                        <mxRectangle x="550" y="140" width="160" height="26" as="alternateBounds"/>
                    </mxGeometry>
                </mxCell>
                <mxCell id="WWrXClFBC-nAK5Uc78w--2" value="index: int &#10;name: string&#10;pinAccessPoints: vector&lt;vector&lt;GRPoint&gt;&gt;&#10;boundingBox: utils::BoxT&lt;int&gt;&#10;routingTree: std::shared_ptr&lt;GRTreeNode&gt;" style="text;align=left;verticalAlign=top;spacingLeft=4;spacingRight=4;overflow=hidden;rotatable=0;points=[[0,0.5],[1,0.5]];portConstraint=eastwest;" parent="WWrXClFBC-nAK5Uc78w--1" vertex="1">
                    <mxGeometry y="26" width="284" height="104" as="geometry"/>
                </mxCell>
                <mxCell id="WWrXClFBC-nAK5Uc78w--4" value="Parameters" style="swimlane;fontStyle=0;align=center;verticalAlign=top;childLayout=stackLayout;horizontal=1;startSize=26;horizontalStack=0;resizeParent=1;resizeLast=0;collapsible=1;marginBottom=0;rounded=0;shadow=0;strokeWidth=1;" parent="1" vertex="1">
                    <mxGeometry x="726" y="67" width="284" height="130" as="geometry">
                        <mxRectangle x="550" y="140" width="160" height="26" as="alternateBounds"/>
                    </mxGeometry>
                </mxCell>
                <mxCell id="WWrXClFBC-nAK5Uc78w--5" value="index: int &#10;name: string&#10;pinAccessPoints: vector&lt;vector&lt;GRPoint&gt;&gt;&#10;boundingBox: utils::BoxT&lt;int&gt;&#10;routingTree: std::shared_ptr&lt;GRTreeNode&gt;" style="text;align=left;verticalAlign=top;spacingLeft=4;spacingRight=4;overflow=hidden;rotatable=0;points=[[0,0.5],[1,0.5]];portConstraint=eastwest;" parent="WWrXClFBC-nAK5Uc78w--4" vertex="1">
                    <mxGeometry y="26" width="284" height="104" as="geometry"/>
                </mxCell>
                <mxCell id="dM2PfXPzma0FVHQA6ENl-1" value="GRPoint" style="swimlane;fontStyle=0;align=center;verticalAlign=top;childLayout=stackLayout;horizontal=1;startSize=26;horizontalStack=0;resizeParent=1;resizeLast=0;collapsible=1;marginBottom=0;rounded=0;shadow=0;strokeWidth=1;" parent="1" vertex="1">
                    <mxGeometry x="270" y="284" width="211" height="130" as="geometry">
                        <mxRectangle x="550" y="140" width="160" height="26" as="alternateBounds"/>
                    </mxGeometry>
                </mxCell>
                <mxCell id="dM2PfXPzma0FVHQA6ENl-2" value="utils::PointT&lt;int&gt;(base)  x: int, y: int&#10;layerIdx: int" style="text;align=left;verticalAlign=top;spacingLeft=4;spacingRight=4;overflow=hidden;rotatable=0;points=[[0,0.5],[1,0.5]];portConstraint=eastwest;" parent="dM2PfXPzma0FVHQA6ENl-1" vertex="1">
                    <mxGeometry y="26" width="211" height="104" as="geometry"/>
                </mxCell>
                <mxCell id="dM2PfXPzma0FVHQA6ENl-3" value="GRTreeNode" style="swimlane;fontStyle=0;align=center;verticalAlign=top;childLayout=stackLayout;horizontal=1;startSize=26;horizontalStack=0;resizeParent=1;resizeLast=0;collapsible=1;marginBottom=0;rounded=0;shadow=0;strokeWidth=1;" parent="1" vertex="1">
                    <mxGeometry x="496" y="284" width="284" height="130" as="geometry">
                        <mxRectangle x="550" y="140" width="160" height="26" as="alternateBounds"/>
                    </mxGeometry>
                </mxCell>
                <mxCell id="dM2PfXPzma0FVHQA6ENl-4" value="GRPoint(l, _x, _y) l: int, x: int, y: int&#10;children: vector&lt;std::shared_ptr&lt;GRTreeNode&gt;&gt;" style="text;align=left;verticalAlign=top;spacingLeft=4;spacingRight=4;overflow=hidden;rotatable=0;points=[[0,0.5],[1,0.5]];portConstraint=eastwest;" parent="dM2PfXPzma0FVHQA6ENl-3" vertex="1">
                    <mxGeometry y="26" width="284" height="104" as="geometry"/>
                </mxCell>
            </root>
        </mxGraphModel>
    </diagram>
</mxfile>